<svg xmlns="http://www.w3.org/2000/svg" width="29" height="29" viewBox="0 0 29 29">
  <g id="Group_421" data-name="Group 421" transform="translate(0.044 0.104)">
    <g id="Group_415" data-name="Group 415" transform="translate(0 0)">
      <g id="Rectangle_131" data-name="Rectangle 131" transform="translate(-0.044 -0.104)" fill="none" stroke="#fff" stroke-width="0.5">
        <rect width="29" height="29" stroke="none"/>
        <rect x="0.25" y="0.25" width="28.5" height="28.5" fill="none"/>
      </g>
      <g id="Rectangle_132" data-name="Rectangle 132" transform="translate(1.956 1.896)" fill="none" stroke="#fff" stroke-width="0.5">
        <rect width="25" height="25" stroke="none"/>
        <rect x="0.25" y="0.25" width="24.5" height="24.5" fill="none"/>
      </g>
    </g>
    <g id="tasbih_1_" data-name="tasbih (1)" transform="translate(8.827 7.996)">
      <path id="Path_4041" data-name="Path 4041" d="M51.185,32.742a.776.776,0,0,0-1,1.126,1.137,1.137,0,0,1,.754.314A.767.767,0,0,0,51.185,32.742Z" transform="translate(-40.27 -26.055)" fill="#fff"/>
      <path id="Path_4042" data-name="Path 4042" d="M51.788,24.887a.768.768,0,0,0-.679,1.367,1.166,1.166,0,0,1,.708.063A.765.765,0,0,0,51.788,24.887Z" transform="translate(-40.815 -19.988)" fill="#fff"/>
      <path id="Path_4043" data-name="Path 4043" d="M50.589,17.232a.765.765,0,0,0-.278,1.464,1.151,1.151,0,0,1,.8-.092A.77.77,0,0,0,50.589,17.232Z" transform="translate(-40.123 -14.079)" fill="#fff"/>
      <path id="Path_4044" data-name="Path 4044" d="M46.446,10.719a.774.774,0,0,0,.788.824,1.094,1.094,0,0,1,.577-.263.747.747,0,0,0,.191-.5A.78.78,0,0,0,46.446,10.719Z" transform="translate(-37.475 -8.475)" fill="#fff"/>
      <path id="Path_4045" data-name="Path 4045" d="M40.561,6.566a.778.778,0,0,0,.971.708,1.135,1.135,0,0,1,.582-.788.778.778,0,0,0-1.553.08Z" transform="translate(-32.907 -5.179)" fill="#fff"/>
      <path id="Path_4046" data-name="Path 4046" d="M34.567,3.8a.778.778,0,1,0-.227.65A1.124,1.124,0,0,1,34.567,3.8Z" transform="translate(-27.048 -3.14)" fill="#fff"/>
      <path id="Path_4047" data-name="Path 4047" d="M26.571,4.256a1.1,1.1,0,0,1,0-.722.784.784,0,0,0-1.466.35A.784.784,0,0,0,26.571,4.256Z" transform="translate(-20.903 -3.133)" fill="#fff"/>
      <path id="Path_4048" data-name="Path 4048" d="M18.533,7.757a.779.779,0,0,0,1.01-.647,1.09,1.09,0,0,1-.321-.708.779.779,0,0,0-1.232.623.33.33,0,0,0,0,.07,1.136,1.136,0,0,1,.539.662Z" transform="translate(-15.38 -5.559)" fill="#fff"/>
      <path id="Path_4049" data-name="Path 4049" d="M12.8,12.5a.77.77,0,1,0-.662-.387,1.1,1.1,0,0,1,.662.387Z" transform="translate(-10.751 -9.213)" fill="#fff"/>
      <path id="Path_4050" data-name="Path 4050" d="M9.164,19.131a.771.771,0,1,0-.891-.217A1.142,1.142,0,0,1,9.164,19.131Z" transform="translate(-7.692 -14.406)" fill="#fff"/>
      <path id="Path_4051" data-name="Path 4051" d="M7.728,26.033a.771.771,0,1,0-.858.307A1.113,1.113,0,0,1,7.728,26.033Z" transform="translate(-6.312 -19.979)" fill="#fff"/>
      <path id="Path_4052" data-name="Path 4052" d="M9.762,31.839a.77.77,0,1,0-.126,1.529.8.8,0,0,0,.442-.133,1.1,1.1,0,0,1,.331-.732.774.774,0,0,0-.647-.664Z" transform="translate(-8.296 -25.417)" fill="#fff"/>
      <path id="Path_4053" data-name="Path 4053" d="M16.7,34.97a.769.769,0,1,0,0,1.539.782.782,0,0,0,.556-.229,1.132,1.132,0,0,1,.179-.792A.771.771,0,0,0,16.7,34.97Z" transform="translate(-13.774 -27.856)" fill="#fff"/>
      <path id="Path_4054" data-name="Path 4054" d="M24.24,36.668a.768.768,0,1,0,.621,1.227,1.1,1.1,0,0,1,.075-.8.783.783,0,0,0-.7-.423Z" transform="translate(-19.635 -29.174)" fill="#fff"/>
      <path id="Path_4055" data-name="Path 4055" d="M31.93,37.338a.769.769,0,1,0,0,1.539c.337,0,.754-.235.65-.606a1.035,1.035,0,0,1,.085-.418A.777.777,0,0,0,31.93,37.338Z" transform="translate(-25.605 -29.694)" fill="#fff"/>
      <path id="Path_4056" data-name="Path 4056" d="M39.952,38.073a.769.769,0,1,0,0,1.539.784.784,0,0,0,.626-.312,1.11,1.11,0,0,1,.133-.631A.778.778,0,0,0,39.952,38.073Z" transform="translate(-31.837 -30.265)" fill="#fff"/>
      <path id="Path_4057" data-name="Path 4057" d="M47.432,42.074v-.912a.767.767,0,0,0,.408-.674.786.786,0,0,0-1.428-.43.774.774,0,0,0,.657,1.2s0,.816,0,.816l-.981,1.754A.181.181,0,0,0,46.4,44l.663-1.186V44.1a.181.181,0,0,0,.362,0s0-1.3,0-1.285L48.094,44a.185.185,0,0,0,.246.07.182.182,0,0,0,.07-.246Z" transform="translate(-37.181 -31.547)" fill="#fff"/>
    </g>
  </g>
</svg>
