<svg xmlns="http://www.w3.org/2000/svg" width="510.988" height="125.823" viewBox="0 0 510.988 125.823">
  <g id="Group_6" data-name="Group 6" transform="translate(529 171.613)">
    <g id="Group_3" data-name="Group 3" transform="translate(-385.18 -140.658)">
      <g id="Group_1" data-name="Group 1" transform="translate(0 0)">
        <path id="Path_1" data-name="Path 1" d="M98.515,80.919A34.381,34.381,0,0,1,73.253,70.457,34.381,34.381,0,0,1,62.79,45.195,34.381,34.381,0,0,1,73.253,19.933,34.381,34.381,0,0,1,98.515,9.47H129.09v2.548L118.9,22.209H98.515a22.021,22.021,0,0,0-16.209,6.722,22.021,22.021,0,0,0-6.722,16.209,22.021,22.021,0,0,0,6.722,16.209,22.021,22.021,0,0,0,16.209,6.722H116.35V50.291H88.323V47.743L95.967,40.1H129.09V80.865H98.515Z" transform="translate(-62.79 -9.47)" fill="#fff"/>
        <path id="Path_2" data-name="Path 2" d="M117.206,47.7a12.154,12.154,0,0,0,9-3.741,12.24,12.24,0,0,0,3.741-9,12.771,12.771,0,0,0-12.74-12.739H89.179V80.875H86.632L76.44,70.684V9.48h40.766a24.6,24.6,0,0,1,18.052,7.481,24.566,24.566,0,0,1,7.481,18,24.727,24.727,0,0,1-7.427,18A24.508,24.508,0,0,1,122.79,59.9l22.552,20.979H130.054L108.1,60.492H94.384V47.753h22.823Z" transform="translate(-2.443 -9.426)" fill="#fff"/>
        <path id="Path_3" data-name="Path 3" d="M137.251,52.848,125.325,22.491,102.394,80.875H89.6l28.027-71.4h15.287l28.027,71.4H148.2l-6.017-15.287H112.531V63.04l10.192-10.192h14.528Z" transform="translate(55.738 -9.426)" fill="#fff"/>
        <path id="Path_4" data-name="Path 4" d="M116.449,27.315v53.56H113.9L103.71,70.684V9.48H119l43.368,56.108V9.48h12.739v71.4H159.818Z" transform="translate(118.119 -9.426)" fill="#fff"/>
        <path id="Path_5" data-name="Path 5" d="M118.29,9.48h30.575a34.381,34.381,0,0,1,25.262,10.463A34.381,34.381,0,0,1,184.589,45.2a34.381,34.381,0,0,1-10.463,25.262,34.381,34.381,0,0,1-25.262,10.463H118.29Zm12.74,58.656h17.835a22.021,22.021,0,0,0,16.209-6.722A22.021,22.021,0,0,0,171.8,45.2,22.021,22.021,0,0,0,165.074,29a22.021,22.021,0,0,0-16.209-6.722H131.03Z" transform="translate(182.578 -9.426)" fill="#fff"/>
      </g>
      <g id="Group_2" data-name="Group 2" transform="translate(364.078 0.325)">
        <path id="Path_6" data-name="Path 6" d="M129.95,9.53" transform="translate(-129.95 -9.53)" fill="#fff"/>
      </g>
    </g>
    <g id="Group_5" data-name="Group 5" transform="translate(-529 -171.613)">
      <path id="Path_7" data-name="Path 7" d="M85.262,29.841h45.862V6.91H85.262a45.862,45.862,0,1,0,0,91.724h45.862V41.225H85.262a11.466,11.466,0,0,0,0,22.931h22.931V75.649H85.262a22.9,22.9,0,1,1,0-45.808Zm9.812,50.687a6.614,6.614,0,1,1-6.614,6.614A6.605,6.605,0,0,1,95.074,80.528Z" transform="translate(-22.378 10.166)" fill="#f27123" fill-rule="evenodd"/>
      <g id="Group_4" data-name="Group 4">
        <path id="Path_8" data-name="Path 8" d="M162.083,129.583H36.26V3.76H162.083V129.583ZM44.446,121.4H153.9V11.946H44.446Z" transform="translate(-36.26 -3.76)" fill="#f27123"/>
      </g>
    </g>
  </g>
</svg>
