<?xml version="1.0" encoding="utf-8"?>
<!-- Generator: Adobe Illustrator 24.0.1, SVG Export Plug-In . SVG Version: 6.00 Build 0)  -->
<svg version="1.1" id="Layer_1" xmlns="http://www.w3.org/2000/svg" xmlns:xlink="http://www.w3.org/1999/xlink" x="0px" y="0px"
	 viewBox="0 0 167 31" style="enable-background:new 0 0 167 31;" xml:space="preserve">
<style type="text/css">
	.st0{fill:#000243;}
	.st1{fill-rule:evenodd;clip-rule:evenodd;fill:#F27123;}
	.st2{fill:#F27123;}
</style>
<g>
	<g>
		<path class="st0" d="M69.38,22.65c-1.82,0-3.37-0.64-4.66-1.93c-1.29-1.29-1.93-2.84-1.93-4.66c0-1.82,0.64-3.37,1.93-4.66
			c1.29-1.29,2.84-1.93,4.66-1.93h5.64v0.47l-1.88,1.88h-3.76c-1.17,0-2.16,0.41-2.99,1.24c-0.83,0.83-1.24,1.82-1.24,2.99
			c0,1.17,0.41,2.16,1.24,2.99c0.83,0.83,1.82,1.24,2.99,1.24h3.29V17H67.5v-0.47l1.41-1.41h6.11v7.52H69.38z"/>
		<path class="st0" d="M83.96,16.53c0.65,0,1.21-0.23,1.66-0.69c0.46-0.46,0.69-1.01,0.69-1.66c0-0.65-0.23-1.21-0.69-1.66
			c-0.46-0.46-1.01-0.69-1.66-0.69h-5.17v10.82h-0.47l-1.88-1.88V9.48h7.52c1.3,0,2.41,0.46,3.33,1.38
			c0.92,0.92,1.38,2.03,1.38,3.32s-0.46,2.4-1.37,3.32c-0.67,0.67-1.44,1.1-2.31,1.28l4.16,3.87h-2.82l-4.05-3.76h-2.53v-2.35H83.96
			z"/>
		<path class="st0" d="M98.39,17.48l-2.2-5.6l-4.23,10.77H89.6l5.17-13.17h2.82l5.17,13.17h-2.35l-1.11-2.82h-5.47v-0.47l1.88-1.88
			H98.39z"/>
		<path class="st0" d="M106.06,12.77v9.88h-0.47l-1.88-1.88V9.48h2.82l8,10.35V9.48h2.35v13.17h-2.82L106.06,12.77z"/>
		<path class="st0" d="M118.29,9.48h5.64c1.82,0,3.37,0.64,4.66,1.93c1.29,1.29,1.93,2.84,1.93,4.66c0,1.82-0.64,3.37-1.93,4.66
			c-1.29,1.29-2.84,1.93-4.66,1.93h-5.64V9.48z M120.64,20.3h3.29c1.17,0,2.16-0.41,2.99-1.24c0.83-0.83,1.24-1.82,1.24-2.99
			c0-1.17-0.41-2.16-1.24-2.99c-0.83-0.83-1.82-1.24-2.99-1.24h-3.29V20.3z"/>
	</g>
	<g>
		<path class="st0" d="M129.95,9.53"/>
	</g>
</g>
<g>
	<path class="st1" d="M47.86,11.14h8.46V6.91h-8.46c-4.66,0-8.46,3.8-8.46,8.46c0,4.66,3.8,8.46,8.46,8.46h8.46V21.7v-2.11v-2.12
		v-4.23h-4.23h-4.23c-1.17,0-2.11,0.95-2.11,2.12c0,1.15,0.94,2.11,2.11,2.11h4.23v2.12h-4.23c-2.32,0-4.23-1.91-4.23-4.23
		C43.64,13.03,45.54,11.14,47.86,11.14z M49.67,20.49c0.67,0,1.22,0.54,1.22,1.22s-0.54,1.22-1.22,1.22c-0.67,0-1.22-0.54-1.22-1.22
		S49,20.49,49.67,20.49z"/>
	<g>
		<path class="st2" d="M59.47,26.97H36.26V3.76h23.21V26.97z M37.77,25.46h20.19V5.27H37.77V25.46z"/>
	</g>
</g>
</svg>
